<?xml version="1.0" encoding="utf-8"?>
<!-- Generator: Adobe Illustrator 16.0.0, SVG Export Plug-In . SVG Version: 6.00 Build 0)  -->
<!DOCTYPE svg PUBLIC "-//W3C//DTD SVG 1.0//EN" "http://www.w3.org/TR/2001/REC-SVG-20010904/DTD/svg10.dtd">
<svg version="1.0" id="Layer_1" xmlns="http://www.w3.org/2000/svg" xmlns:xlink="http://www.w3.org/1999/xlink" x="0px" y="0px"
	 width="769px" height="111px" viewBox="0 0 769 111" style="enable-background:new 0 0 769 111;" xml:space="preserve">
<g>
	<g>
		<path style="fill:#FFFFFF;" d="M167.312,67.132c-1.167,0-2.321-0.094-3.46-0.278c-1.141-0.188-2.241-0.73-3.301-1.627
			c-1.273-1.055-2.016-2.155-2.227-3.295c-0.213-1.134-0.318-2.362-0.318-3.688V20.159c0-1.057,0.132-2.142,0.397-3.254
			c0.265-1.108,0.928-2.139,1.99-3.092c1.059-0.952,2.198-1.561,3.418-1.828c1.221-0.264,2.334-0.396,3.341-0.396h39.934v13.515
			h-27.454c-0.529,0-1.044,0.069-1.549,0.201c-0.502,0.132-0.912,0.325-1.228,0.59c-0.424,0.372-0.676,0.82-0.755,1.346
			c-0.08,0.531-0.118,0.981-0.118,1.35v4.2h30.311v12.025h-30.311v6.028c0,0.582,0.079,1.03,0.238,1.349
			c0.159,0.318,0.343,0.554,0.556,0.714c0.423,0.421,0.95,0.646,1.585,0.673c0.635,0.027,1.243,0.038,1.826,0.038h27.136v13.515
			H167.312z"/>
		<path style="fill:#FFFFFF;" d="M239.613,49.279c0.159,0.476,0.343,0.795,0.556,0.953c0.212,0.159,0.371,0.237,0.475,0.237
			c0.105,0,0.263-0.078,0.477-0.237c0.21-0.157,0.396-0.477,0.556-0.953l13.012-37.69h19.204l-19.283,47.198
			c-0.477,1.217-1.071,2.37-1.784,3.451c-0.715,1.084-1.602,2.034-2.66,2.854c-1.059,0.822-2.354,1.47-3.888,1.945
			c-1.534,0.474-3.412,0.714-5.633,0.714c-2.222,0-4.099-0.24-5.634-0.714c-1.533-0.476-2.844-1.123-3.928-1.945
			c-1.085-0.82-1.97-1.771-2.659-2.854c-0.687-1.081-1.269-2.234-1.745-3.451l-19.281-47.198h19.204L239.613,49.279z"/>
		<path style="fill:#FFFFFF;" d="M282.284,67.132c-1.165,0-2.32-0.094-3.459-0.278c-1.141-0.188-2.241-0.73-3.301-1.627
			c-1.274-1.055-2.016-2.155-2.228-3.295c-0.213-1.134-0.317-2.362-0.317-3.688V20.159c0-1.057,0.131-2.142,0.396-3.254
			c0.266-1.108,0.928-2.139,1.99-3.092c1.06-0.952,2.198-1.561,3.418-1.828c1.222-0.264,2.335-0.396,3.342-0.396h39.933v13.515
			h-27.453c-0.53,0-1.045,0.069-1.548,0.201c-0.504,0.132-0.913,0.325-1.229,0.59c-0.424,0.372-0.676,0.82-0.755,1.346
			c-0.08,0.531-0.119,0.981-0.119,1.35v4.2h30.311v12.025h-30.311v6.028c0,0.582,0.08,1.03,0.239,1.349
			c0.158,0.318,0.342,0.554,0.555,0.714c0.423,0.421,0.95,0.646,1.585,0.673c0.635,0.027,1.243,0.038,1.827,0.038h27.135v13.515
			H282.284z"/>
		<path style="fill:#FFFFFF;" d="M388.432,57.864c0,0.477-0.08,1.271-0.238,2.379c-0.158,1.116-0.634,2.224-1.428,3.331
			c-0.795,1.117-1.999,2.093-3.616,2.938c-1.615,0.844-3.878,1.271-6.791,1.271c-1.059,0-2.121-0.056-3.177-0.16
			c-1.06-0.104-2.106-0.345-3.139-0.717c-1.031-0.368-2.038-0.923-3.018-1.666c-0.98-0.736-1.892-1.716-2.739-2.937l-20.096-28.321
			c-0.213-0.263-0.452-0.559-0.716-0.876c-0.264-0.317-0.53-0.477-0.793-0.477c-0.106,0-0.319,0.067-0.637,0.198
			c-0.317,0.131-0.475,0.596-0.475,1.391v32.927h-13.763V20.809c0-1.796,0.344-3.316,1.034-4.563
			c0.688-1.24,1.613-2.258,2.779-3.053c1.163-0.794,2.501-1.363,4.011-1.704c1.508-0.35,3.059-0.52,4.647-0.52
			c0.741,0,1.616,0.038,2.622,0.121c1.005,0.081,2.039,0.29,3.099,0.635c1.057,0.345,2.116,0.86,3.177,1.546
			c1.057,0.69,2.009,1.643,2.858,2.86l20.255,28.562c0.212,0.262,0.436,0.557,0.674,0.875c0.239,0.317,0.518,0.473,0.834,0.473
			c0.422,0,0.674-0.17,0.755-0.511c0.078-0.35,0.121-0.624,0.121-0.836V11.604h13.76V57.864z"/>
		<path style="fill:#FFFFFF;" d="M411.364,67.132V25.351h-19.837V11.589h57.651v13.762h-19.836v41.781H411.364z"/>
		<path style="fill:#FDCC12;" d="M452.381,67.132V22.065c0-1.163,0.132-2.46,0.396-3.891c0.263-1.425,0.873-2.673,1.828-3.726
			c0.58-0.689,1.48-1.341,2.698-1.945c1.219-0.612,2.784-0.915,4.688-0.915h30.745c2.223,0,4.339,0.225,6.352,0.674
			c2.012,0.45,3.786,1.527,5.324,3.217c1.323,1.379,2.343,3.246,3.057,5.602c0.715,2.355,1.073,5.545,1.073,9.57
			c0,0.954-0.041,2.208-0.12,3.774c-0.079,1.557-0.29,3.188-0.636,4.88c-0.344,1.694-0.847,3.333-1.507,4.921
			c-0.663,1.589-1.576,2.89-2.739,3.893c-1.322,1.112-2.898,1.895-4.723,2.345c-1.827,0.449-3.509,0.674-5.043,0.674h-23.419v15.993
			H452.381z M483.194,37.377c1.108,0,2.191-0.038,3.251-0.121c1.055-0.081,1.955-0.523,2.696-1.321
			c0.947-1.069,1.425-2.7,1.425-4.893c0-0.748-0.08-1.523-0.237-2.325c-0.161-0.801-0.607-1.495-1.349-2.083
			c-0.738-0.639-1.6-1.012-2.574-1.12c-0.979-0.108-1.997-0.163-3.053-0.163h-9.906c-0.741,0-1.309,0.121-1.702,0.361
			c-0.397,0.24-0.702,0.524-0.914,0.84c-0.211,0.326-0.343,0.671-0.395,1.047c-0.055,0.371-0.08,0.72-0.08,1.038v8.741H483.194z"/>
		<path style="fill:#FDCC12;" d="M570.863,67.132h-17.977V45.064h-20.086v22.067h-17.977V11.589h17.977v19.714h20.086V11.589h17.977
			V67.132z"/>
		<path style="fill:#FDCC12;" d="M614.238,11.09c2.223,0.081,4.403,0.306,6.547,0.673c2.142,0.368,4.181,0.938,6.114,1.705
			c1.929,0.768,3.637,1.836,5.121,3.212c1.48,1.375,2.642,2.986,3.487,4.835c0.848,1.851,1.484,3.78,1.904,5.792
			c0.427,2.01,0.675,4.057,0.756,6.145c0.082,2.088,0.121,4.056,0.121,5.908c0,1.853-0.039,3.808-0.121,5.871
			c-0.081,2.061-0.329,4.094-0.756,6.105c-0.42,2.012-1.057,3.94-1.904,5.789c-0.846,1.853-2.007,3.49-3.487,4.917
			c-1.484,1.374-3.192,2.447-5.121,3.215c-1.934,0.767-3.973,1.332-6.114,1.705c-2.144,0.364-4.34,0.589-6.588,0.673
			c-2.251,0.079-4.408,0.117-6.471,0.117c-2.064,0-4.222-0.038-6.469-0.117c-2.247-0.084-4.448-0.309-6.586-0.673
			c-2.146-0.373-4.185-0.938-6.114-1.705c-1.933-0.768-3.642-1.841-5.121-3.215c-1.535-1.427-2.712-3.064-3.53-4.917
			c-0.821-1.849-1.444-3.777-1.864-5.789c-0.426-2.011-0.677-4.044-0.759-6.105c-0.077-2.063-0.116-4.018-0.116-5.871
			c0-1.852,0.039-3.819,0.116-5.908c0.082-2.088,0.333-4.135,0.759-6.145c0.42-2.012,1.043-3.94,1.864-5.792
			c0.818-1.85,1.995-3.461,3.53-4.835c1.479-1.376,3.188-2.445,5.121-3.212c1.93-0.767,3.968-1.337,6.114-1.705
			c2.138-0.368,4.324-0.592,6.548-0.673c2.223-0.083,4.393-0.121,6.507-0.121C609.844,10.969,612.013,11.007,614.238,11.09z
			 M595.873,45.285c0.24,1.723,0.813,3.273,1.719,4.652c0.582,0.898,1.232,1.627,1.954,2.186c0.721,0.558,1.488,0.968,2.315,1.231
			c0.822,0.263,1.728,0.438,2.712,0.52c0.984,0.077,2.039,0.116,3.153,0.116c1.173,0,2.248-0.039,3.233-0.116
			c0.983-0.082,1.875-0.257,2.672-0.52c0.798-0.264,1.542-0.674,2.235-1.231c0.695-0.559,1.36-1.287,1.996-2.186
			c1.015-1.488,1.611-3.061,1.797-4.734c0.188-1.666,0.279-3.617,0.279-5.843c0-1.216-0.016-2.305-0.039-3.262
			c-0.03-0.953-0.091-1.84-0.201-2.661c-0.109-0.822-0.307-1.601-0.597-2.344c-0.295-0.744-0.706-1.511-1.239-2.31
			c-1.226-1.797-2.634-2.926-4.231-3.378c-1.596-0.451-3.563-0.675-5.905-0.675c-1.169,0-2.232,0.038-3.192,0.121
			c-0.96,0.081-1.862,0.267-2.711,0.554c-0.853,0.293-1.627,0.705-2.316,1.231c-0.694,0.534-1.333,1.248-1.915,2.146
			c-1.015,1.487-1.611,3.036-1.798,4.653c-0.185,1.615-0.279,3.591-0.279,5.923C595.515,41.587,595.633,43.561,595.873,45.285z"/>
		<path style="fill:#FDCC12;" d="M705.26,57.864c0,0.477-0.077,1.271-0.235,2.379c-0.158,1.116-0.636,2.224-1.429,3.331
			c-0.795,1.117-2.001,2.093-3.616,2.938c-1.614,0.844-3.878,1.271-6.792,1.271c-1.062,0-2.118-0.056-3.177-0.16
			c-1.062-0.104-2.107-0.345-3.138-0.717c-1.035-0.368-2.039-0.923-3.019-1.666c-0.979-0.736-1.895-1.716-2.74-2.937L661.02,33.983
			c-0.211-0.263-0.453-0.559-0.717-0.876c-0.265-0.317-0.53-0.477-0.794-0.477c-0.104,0-0.317,0.067-0.635,0.198
			c-0.319,0.131-0.478,0.596-0.478,1.391v32.927h-13.762V20.809c0-1.796,0.345-3.316,1.034-4.563
			c0.686-1.24,1.612-2.258,2.777-3.053c1.167-0.794,2.504-1.363,4.012-1.704c1.51-0.35,3.059-0.52,4.647-0.52
			c0.741,0,1.617,0.038,2.624,0.121c1.003,0.081,2.039,0.29,3.096,0.635s2.118,0.86,3.178,1.546c1.057,0.69,2.01,1.643,2.857,2.86
			l20.256,28.562c0.212,0.262,0.438,0.557,0.675,0.875c0.241,0.317,0.519,0.473,0.836,0.473c0.424,0,0.675-0.17,0.753-0.511
			c0.08-0.35,0.119-0.624,0.119-0.836V11.604h13.761V57.864z"/>
		<path style="fill:#FDCC12;" d="M722.498,67.132c-1.167,0-2.32-0.094-3.461-0.278c-1.143-0.188-2.243-0.73-3.301-1.627
			c-1.273-1.055-2.019-2.155-2.227-3.295c-0.214-1.134-0.318-2.362-0.318-3.688V20.159c0-1.057,0.132-2.142,0.395-3.254
			c0.268-1.108,0.931-2.139,1.992-3.092c1.057-0.952,2.196-1.561,3.417-1.828c1.221-0.264,2.336-0.396,3.345-0.396h39.933v13.515
			h-27.454c-0.531,0-1.045,0.069-1.55,0.201c-0.504,0.132-0.91,0.325-1.229,0.59c-0.422,0.372-0.672,0.82-0.754,1.346
			c-0.078,0.531-0.117,0.981-0.117,1.35v4.2h30.31v12.025h-30.31v6.028c0,0.582,0.078,1.03,0.237,1.349
			c0.158,0.318,0.344,0.554,0.558,0.714c0.422,0.421,0.948,0.646,1.584,0.673c0.635,0.027,1.245,0.038,1.824,0.038h27.136v13.515
			H722.498z"/>
	</g>
	<g>
		<path style="fill:#FDCC12;" d="M158.181,91.816h8.083c0.111,0,0.223-0.037,0.335-0.111c0.074-0.055,0.111-0.147,0.111-0.278
			c0-0.092-0.028-0.162-0.084-0.209c-0.056-0.046-0.112-0.089-0.167-0.125c-0.093-0.057-0.25-0.116-0.474-0.182
			c-0.223-0.065-0.622-0.2-1.198-0.405l-3.177-1.031c-0.668-0.223-1.273-0.487-1.812-0.794c-0.539-0.307-0.947-0.693-1.227-1.157
			c-0.204-0.354-0.348-0.763-0.431-1.227c-0.084-0.465-0.125-0.884-0.125-1.256c0-0.465,0.05-0.924,0.152-1.38
			c0.101-0.454,0.281-0.878,0.54-1.27c0.388-0.594,0.858-0.975,1.412-1.142c0.554-0.167,1.219-0.251,1.994-0.251h9.82v3.772h-7.991
			c-0.092,0-0.195-0.004-0.305-0.015c-0.111-0.008-0.223,0.006-0.333,0.042c-0.074,0.019-0.134,0.043-0.18,0.07
			c-0.046,0.027-0.069,0.089-0.069,0.182c0,0.111,0.028,0.186,0.083,0.223c0.055,0.037,0.129,0.074,0.224,0.111
			c0.166,0.056,0.287,0.099,0.361,0.126s0.139,0.055,0.195,0.084c0.056,0.027,0.121,0.056,0.195,0.083
			c0.075,0.028,0.195,0.069,0.363,0.125l3.731,1.255c0.78,0.26,1.453,0.529,2.02,0.809c0.566,0.278,1.026,0.678,1.38,1.199
			c0.352,0.501,0.565,1.021,0.64,1.561c0.075,0.539,0.111,0.968,0.111,1.283c0,0.538-0.078,1.096-0.236,1.672
			s-0.487,1.069-0.988,1.478c-0.389,0.317-0.797,0.512-1.223,0.587c-0.426,0.074-0.824,0.111-1.194,0.111h-10.537V91.816z"/>
		<path style="fill:#FDCC12;" d="M211.462,95.757c-0.278,0-0.597-0.005-0.957-0.014c-0.36-0.01-0.744-0.048-1.149-0.111
			c-0.407-0.065-0.823-0.163-1.247-0.294c-0.425-0.13-0.822-0.326-1.19-0.585c-0.609-0.429-1.072-0.972-1.385-1.631
			c-0.314-0.659-0.471-1.325-0.471-1.994v-6.356h-2.081v-3.772h2.081v-4.717h5.428v4.717h4.19v3.772h-4.19v3.383
			c0,0.541,0.056,1.077,0.166,1.608c0.111,0.531,0.371,0.983,0.777,1.356c0.37,0.335,0.773,0.534,1.207,0.6
			c0.435,0.066,0.828,0.098,1.18,0.098h0.805v3.94H211.462z"/>
		<path style="fill:#FDCC12;" d="M256.116,80.999c0.904,0,1.656,0.135,2.257,0.404c0.6,0.27,1.056,0.561,1.371,0.876
			c0.295,0.298,0.534,0.627,0.72,0.988c0.184,0.362,0.327,0.724,0.429,1.087c0.102,0.362,0.166,0.724,0.193,1.086
			c0.028,0.362,0.042,0.692,0.042,0.988v6.181c0,0.39-0.037,0.794-0.111,1.212c-0.074,0.417-0.277,0.803-0.611,1.155
			c-0.352,0.371-0.75,0.594-1.195,0.669c-0.445,0.074-0.88,0.111-1.307,0.111h-8.67c-0.464,0-0.931-0.037-1.404-0.111
			c-0.472-0.073-0.903-0.296-1.292-0.666c-0.279-0.258-0.501-0.563-0.667-0.915c-0.167-0.352-0.288-0.716-0.362-1.096
			c-0.074-0.379-0.12-0.754-0.138-1.124c-0.02-0.369-0.028-0.702-0.028-0.999c0-0.313,0.014-0.643,0.042-0.984
			s0.084-0.679,0.167-1.012c0.083-0.334,0.209-0.647,0.376-0.943s0.399-0.556,0.697-0.776c0.408-0.314,0.839-0.501,1.294-0.556
			c0.455-0.055,0.895-0.083,1.322-0.083h6.459v-0.229c0-0.133-0.014-0.29-0.041-0.471c-0.028-0.182-0.107-0.358-0.236-0.53
			c-0.204-0.286-0.462-0.457-0.777-0.515c-0.315-0.057-0.611-0.086-0.888-0.086h-7.381v-3.661H256.116z M251.807,89.986
			c-0.093,0-0.218,0.014-0.378,0.041c-0.159,0.028-0.303,0.098-0.434,0.208c-0.093,0.093-0.154,0.2-0.183,0.319
			c-0.027,0.12-0.041,0.245-0.041,0.375c0,0.111,0.014,0.222,0.041,0.333c0.028,0.111,0.09,0.213,0.183,0.305
			c0.093,0.093,0.21,0.157,0.349,0.194c0.141,0.037,0.276,0.055,0.408,0.055h2.856c0.149,0,0.298-0.014,0.449-0.041
			c0.149-0.027,0.27-0.078,0.363-0.152c0.131-0.092,0.21-0.203,0.238-0.333c0.028-0.129,0.042-0.259,0.042-0.388v-0.916H251.807z"/>
		<path style="fill:#FDCC12;" d="M301.052,100.527h-5.439l2.304-4.764l-6.993-14.765h5.55l3.857,9.36l4.08-9.36h5.438
			L301.052,100.527z"/>
		<path style="fill:#FFFFFF;" d="M382.349,95.757c-0.314,0-0.661-0.019-1.04-0.057c-0.378-0.035-0.771-0.114-1.177-0.236
			c-0.406-0.12-0.803-0.296-1.191-0.528c-0.387-0.232-0.747-0.544-1.079-0.935c-0.574-0.667-0.934-1.456-1.081-2.366
			c-0.148-0.909-0.222-1.931-0.222-3.062c0-0.54,0.014-1.082,0.042-1.63s0.098-1.08,0.208-1.602c0.111-0.52,0.272-1.021,0.484-1.503
			c0.213-0.481,0.513-0.919,0.9-1.308c0.573-0.595,1.232-0.999,1.979-1.212c0.748-0.214,1.565-0.32,2.452-0.32h7.909v3.717h-5.384
			c-0.462,0-0.856,0.047-1.179,0.14c-0.324,0.093-0.592,0.224-0.804,0.392c-0.214,0.168-0.385,0.358-0.513,0.573
			c-0.131,0.214-0.232,0.441-0.305,0.685c-0.094,0.298-0.158,0.606-0.195,0.922c-0.037,0.317-0.055,0.662-0.055,1.035
			c0,0.856,0.055,1.467,0.167,1.831c0.11,0.362,0.203,0.609,0.277,0.74c0.167,0.279,0.375,0.489,0.625,0.629
			c0.249,0.141,0.508,0.238,0.776,0.293c0.269,0.057,0.531,0.084,0.792,0.084c0.276,0,0.516,0,0.72,0h5.383v3.718H382.349z"/>
		<path style="fill:#FFFFFF;" d="M432.334,80.874c0.61,0.027,1.203,0.089,1.778,0.182s1.116,0.24,1.625,0.445
			c0.509,0.204,0.967,0.482,1.375,0.835c0.463,0.408,0.824,0.886,1.083,1.434c0.26,0.548,0.455,1.101,0.586,1.657
			c0.128,0.557,0.206,1.095,0.234,1.614c0.028,0.521,0.042,0.965,0.042,1.337c0,0.37-0.014,0.815-0.042,1.337
			c-0.028,0.52-0.106,1.058-0.234,1.614c-0.131,0.557-0.326,1.108-0.586,1.656c-0.259,0.548-0.62,1.026-1.083,1.435
			c-0.408,0.353-0.866,0.631-1.375,0.834c-0.509,0.204-1.05,0.354-1.625,0.445c-0.575,0.093-1.168,0.153-1.778,0.182
			c-0.611,0.028-1.204,0.042-1.777,0.042c-0.592,0-1.191-0.014-1.792-0.042c-0.603-0.028-1.191-0.089-1.765-0.182
			c-0.575-0.092-1.118-0.241-1.625-0.445c-0.51-0.203-0.969-0.481-1.376-0.834c-0.462-0.408-0.823-0.887-1.083-1.435
			s-0.453-1.1-0.584-1.656c-0.13-0.557-0.209-1.095-0.236-1.614c-0.027-0.521-0.041-0.967-0.041-1.337
			c0-0.372,0.014-0.815,0.041-1.337c0.027-0.52,0.106-1.058,0.236-1.614c0.131-0.557,0.324-1.109,0.584-1.657
			s0.621-1.025,1.083-1.434c0.407-0.353,0.866-0.631,1.376-0.835c0.507-0.205,1.05-0.353,1.625-0.445
			c0.573-0.093,1.162-0.154,1.765-0.182c0.601-0.027,1.2-0.042,1.792-0.042C431.13,80.832,431.723,80.847,432.334,80.874z
			 M427.775,90.181c0.121,0.382,0.236,0.646,0.349,0.796c0.019,0.039,0.079,0.113,0.182,0.225c0.102,0.113,0.252,0.224,0.447,0.335
			c0.195,0.113,0.438,0.215,0.728,0.308c0.289,0.095,0.646,0.141,1.076,0.141c0.744,0,1.299-0.121,1.662-0.364
			c0.364-0.242,0.61-0.455,0.741-0.644c0.224-0.315,0.373-0.693,0.448-1.131c0.074-0.438,0.111-0.928,0.111-1.468
			c0-0.782-0.052-1.369-0.154-1.762c-0.102-0.391-0.229-0.689-0.377-0.895c-0.148-0.186-0.4-0.392-0.754-0.615
			c-0.356-0.224-0.915-0.335-1.678-0.335c-0.765,0-1.323,0.111-1.678,0.335s-0.605,0.43-0.755,0.615
			c-0.093,0.149-0.206,0.409-0.335,0.782c-0.131,0.373-0.196,0.997-0.196,1.874C427.593,89.197,427.653,89.8,427.775,90.181z"/>
		<path style="fill:#FFFFFF;" d="M470.57,83.644c0-0.277,0.027-0.579,0.082-0.904c0.057-0.325,0.233-0.627,0.53-0.905
			c0.202-0.204,0.442-0.362,0.722-0.474c0.276-0.11,0.565-0.195,0.861-0.25c0.297-0.055,0.588-0.088,0.875-0.098
			c0.288-0.009,0.541-0.014,0.766-0.014h5.113c0.852,0,1.699,0.07,2.542,0.209s1.644,0.506,2.404,1.099
			c0.407,0.336,0.731,0.688,0.973,1.06c0.24,0.37,0.426,0.751,0.556,1.142c0.13,0.39,0.212,0.771,0.25,1.142
			c0.035,0.37,0.055,0.714,0.055,1.029v9.078h-5.427v-7.501c0-0.521-0.038-0.988-0.113-1.407c-0.073-0.418-0.242-0.795-0.503-1.131
			c-0.243-0.315-0.541-0.542-0.897-0.683c-0.353-0.139-0.812-0.208-1.372-0.208h-0.98c-0.111,0-0.238,0.014-0.378,0.041
			s-0.266,0.088-0.379,0.181c-0.148,0.13-0.228,0.266-0.236,0.405c-0.01,0.141-0.015,0.283-0.015,0.432v9.871h-5.428V83.644z"/>
		<path style="fill:#FFFFFF;" d="M518.145,83.644c0-0.277,0.027-0.579,0.082-0.904c0.056-0.325,0.232-0.627,0.528-0.905
			c0.204-0.204,0.445-0.362,0.723-0.474c0.278-0.11,0.565-0.195,0.862-0.25s0.586-0.088,0.875-0.098
			c0.287-0.009,0.541-0.014,0.764-0.014h5.113c0.852,0,1.7,0.07,2.545,0.209c0.842,0.139,1.643,0.506,2.402,1.099
			c0.407,0.336,0.732,0.688,0.973,1.06c0.241,0.37,0.426,0.751,0.556,1.142c0.13,0.39,0.214,0.771,0.25,1.142
			c0.037,0.37,0.056,0.714,0.056,1.029v9.078h-5.428v-7.501c0-0.521-0.038-0.988-0.112-1.407c-0.074-0.418-0.243-0.795-0.503-1.131
			c-0.243-0.315-0.543-0.542-0.896-0.683c-0.356-0.139-0.812-0.208-1.373-0.208h-0.981c-0.112,0-0.236,0.014-0.377,0.041
			c-0.14,0.027-0.266,0.088-0.378,0.181c-0.149,0.13-0.229,0.266-0.239,0.405c-0.009,0.141-0.014,0.283-0.014,0.432v9.871h-5.427
			V83.644z"/>
		<path style="fill:#FFFFFF;" d="M571.34,95.757c-0.554,0-1.08-0.01-1.58-0.029c-0.498-0.017-0.968-0.087-1.411-0.208
			c-0.442-0.121-0.851-0.311-1.22-0.57c-0.368-0.26-0.701-0.632-0.996-1.114c-0.314-0.538-0.518-1.22-0.61-2.046
			c-0.092-0.826-0.138-1.908-0.138-3.245c0-0.666,0-1.308,0-1.921c0-0.611,0.032-1.183,0.097-1.711
			c0.064-0.529,0.181-1.017,0.347-1.463c0.166-0.445,0.416-0.835,0.75-1.17c0.332-0.352,0.754-0.625,1.263-0.82
			c0.508-0.195,1.067-0.34,1.679-0.433c0.61-0.092,1.251-0.147,1.927-0.166s1.363-0.028,2.066-0.028c1.499,0,2.737,0.047,3.719,0.14
			c0.979,0.094,1.766,0.381,2.358,0.865c0.351,0.278,0.632,0.624,0.844,1.033c0.214,0.409,0.376,0.838,0.487,1.284
			c0.109,0.446,0.18,0.897,0.207,1.353c0.027,0.456,0.042,0.889,0.042,1.298c0,0.484-0.043,0.973-0.126,1.467
			c-0.082,0.493-0.337,0.906-0.763,1.241c-0.241,0.204-0.478,0.326-0.708,0.362c-0.231,0.038-0.476,0.056-0.735,0.056h-8.024
			c-0.02,0.204-0.006,0.416,0.041,0.639c0.046,0.222,0.115,0.407,0.208,0.554c0.24,0.371,0.587,0.579,1.04,0.625
			c0.452,0.047,0.921,0.068,1.402,0.068h7.131v3.94H571.34z M574.851,86.491c0.391,0,0.637-0.095,0.739-0.285
			c0.102-0.19,0.152-0.361,0.152-0.515c0-0.21-0.065-0.409-0.195-0.6c-0.131-0.19-0.398-0.333-0.808-0.428
			c-0.224-0.038-0.482-0.066-0.78-0.086c-0.296-0.02-0.519-0.029-0.667-0.029c-0.315,0-0.66,0.016-1.032,0.044
			c-0.37,0.028-0.657,0.1-0.861,0.213c-0.28,0.153-0.455,0.377-0.53,0.672c-0.074,0.295-0.093,0.633-0.055,1.014H574.851z"/>
		<path style="fill:#FFFFFF;" d="M618.166,95.757c-0.315,0-0.66-0.019-1.04-0.057c-0.379-0.035-0.769-0.114-1.177-0.236
			c-0.406-0.12-0.803-0.296-1.19-0.528s-0.747-0.544-1.08-0.935c-0.573-0.667-0.932-1.456-1.079-2.366
			c-0.148-0.909-0.222-1.931-0.222-3.062c0-0.54,0.014-1.082,0.041-1.63s0.098-1.08,0.208-1.602c0.111-0.52,0.271-1.021,0.484-1.503
			c0.212-0.481,0.512-0.919,0.9-1.308c0.572-0.595,1.232-0.999,1.98-1.212c0.747-0.214,1.563-0.32,2.451-0.32h7.907v3.717h-5.382
			c-0.463,0-0.856,0.047-1.18,0.14c-0.324,0.093-0.593,0.224-0.805,0.392c-0.213,0.168-0.385,0.358-0.514,0.573
			c-0.13,0.214-0.23,0.441-0.305,0.685c-0.093,0.298-0.158,0.606-0.194,0.922c-0.037,0.317-0.056,0.662-0.056,1.035
			c0,0.856,0.056,1.467,0.167,1.831c0.111,0.362,0.203,0.609,0.277,0.74c0.165,0.279,0.374,0.489,0.624,0.629
			c0.248,0.141,0.509,0.238,0.777,0.293c0.268,0.057,0.53,0.084,0.79,0.084c0.276,0,0.518,0,0.723,0h5.383v3.718H618.166z"/>
		<path style="fill:#FFFFFF;" d="M665.798,95.757c-0.277,0-0.598-0.005-0.958-0.014c-0.358-0.01-0.742-0.048-1.148-0.111
			c-0.407-0.065-0.822-0.163-1.246-0.294c-0.426-0.13-0.822-0.326-1.19-0.585c-0.609-0.429-1.07-0.972-1.385-1.631
			s-0.471-1.325-0.471-1.994v-6.356h-2.081v-3.772h2.081v-4.717h5.427v4.717h4.19v3.772h-4.19v3.383
			c0,0.541,0.056,1.077,0.167,1.608s0.37,0.983,0.777,1.356c0.37,0.335,0.772,0.534,1.207,0.6c0.434,0.066,0.829,0.098,1.179,0.098
			h0.806v3.94H665.798z"/>
		<path style="fill:#FFFFFF;" d="M705.911,95.757c-0.555,0-1.08-0.01-1.579-0.029c-0.498-0.017-0.97-0.087-1.413-0.208
			c-0.442-0.121-0.85-0.311-1.219-0.57c-0.368-0.26-0.7-0.632-0.997-1.114c-0.312-0.538-0.517-1.22-0.608-2.046
			c-0.094-0.826-0.14-1.908-0.14-3.245c0-0.666,0-1.308,0-1.921c0-0.611,0.032-1.183,0.098-1.711
			c0.064-0.529,0.181-1.017,0.347-1.463c0.166-0.445,0.417-0.835,0.749-1.17c0.332-0.352,0.754-0.625,1.264-0.82
			c0.508-0.195,1.066-0.34,1.678-0.433c0.61-0.092,1.253-0.147,1.927-0.166c0.676-0.019,1.364-0.028,2.068-0.028
			c1.497,0,2.736,0.047,3.717,0.14c0.979,0.094,1.766,0.381,2.357,0.865c0.352,0.278,0.634,0.624,0.847,1.033
			s0.375,0.838,0.486,1.284c0.11,0.446,0.179,0.897,0.206,1.353c0.027,0.456,0.042,0.889,0.042,1.298
			c0,0.484-0.043,0.973-0.124,1.467c-0.084,0.493-0.338,0.906-0.765,1.241c-0.239,0.204-0.476,0.326-0.708,0.362
			c-0.231,0.038-0.476,0.056-0.735,0.056h-8.024c-0.019,0.204-0.005,0.416,0.041,0.639c0.046,0.222,0.116,0.407,0.208,0.554
			c0.241,0.371,0.587,0.579,1.04,0.625c0.454,0.047,0.922,0.068,1.402,0.068h7.131v3.94H705.911z M709.421,86.491
			c0.391,0,0.637-0.095,0.739-0.285s0.153-0.361,0.153-0.515c0-0.21-0.066-0.409-0.196-0.6c-0.129-0.19-0.397-0.333-0.808-0.428
			c-0.223-0.038-0.482-0.066-0.78-0.086c-0.296-0.02-0.519-0.029-0.667-0.029c-0.315,0-0.66,0.016-1.03,0.044
			c-0.371,0.028-0.659,0.1-0.863,0.213c-0.278,0.153-0.454,0.377-0.529,0.672c-0.074,0.295-0.093,0.633-0.056,1.014H709.421z"/>
		<path style="fill:#FFFFFF;" d="M762.567,76.282v16.358c0,0.315-0.028,0.677-0.085,1.084c-0.055,0.408-0.185,0.752-0.387,1.03
			c-0.167,0.241-0.354,0.427-0.557,0.557s-0.416,0.228-0.639,0.292c-0.222,0.064-0.449,0.107-0.681,0.124
			c-0.23,0.02-0.447,0.029-0.651,0.029h-7.302c-1.152,0-2.12-0.241-2.911-0.725c-0.788-0.481-1.369-1.188-1.739-2.116
			c-0.296-0.705-0.482-1.472-0.557-2.297c-0.074-0.826-0.111-1.694-0.111-2.604s0.057-1.781,0.168-2.616
			c0.11-0.837,0.416-1.606,0.919-2.312c0.314-0.446,0.677-0.808,1.085-1.085c0.407-0.279,0.831-0.492,1.267-0.642
			c0.437-0.147,0.872-0.244,1.309-0.291s0.85-0.07,1.24-0.07h4.203v-4.717H762.567z M754.729,84.771
			c-0.447,0-0.817,0.093-1.105,0.28c-0.291,0.186-0.511,0.39-0.659,0.613c-0.262,0.373-0.426,0.807-0.491,1.302
			c-0.065,0.493-0.097,0.945-0.097,1.354c0,0.708,0.031,1.255,0.097,1.636c0.065,0.382,0.164,0.693,0.294,0.936
			c0.261,0.485,0.595,0.788,0.995,0.91c0.402,0.12,0.724,0.182,0.967,0.182h1.316c0.263,0,0.454-0.029,0.575-0.084
			c0.12-0.056,0.199-0.103,0.237-0.14c0.148-0.131,0.233-0.304,0.252-0.518c0.02-0.214,0.028-0.377,0.028-0.49v-5.981H754.729z"/>
	</g>
</g>
<g>
	<path style="fill:#FDCC12;" d="M26.514,55.907c0,26.104,21.236,47.342,47.338,47.342c26.104,0,47.342-21.237,47.342-47.342
		c0-26.103-21.238-47.339-47.342-47.339C47.75,8.568,26.514,29.805,26.514,55.907z M30.316,55.907
		c0-24.006,19.53-43.536,43.536-43.536c24.007,0,43.539,19.53,43.539,43.536c0,24.007-19.532,43.539-43.539,43.539
		C49.847,99.446,30.316,79.914,30.316,55.907z"/>
	<path style="fill:#FDCC12;" d="M111.149,18.224c20.657,20.659,20.657,54.274,0,74.933l3.227,3.227
		c22.436-22.438,22.436-58.947,0-81.385L111.149,18.224z"/>
	<path style="fill:#FDCC12;" d="M33.314,96.656l3.227-3.226c-20.659-20.66-20.66-54.274-0.002-74.934l-3.226-3.226
		C10.876,37.71,10.876,74.219,33.314,96.656z"/>
	<path style="fill:#FDCC12;" d="M118.454,11.105c24.613,24.613,24.613,64.662,0,89.274l3.764,3.765
		c12.94-12.938,20.064-30.128,20.064-48.401s-7.124-35.463-20.064-48.401L118.454,11.105z"/>
	<path style="fill:#FDCC12;" d="M25.431,104.421l3.764-3.765c-24.612-24.614-24.612-64.662,0-89.274l-3.764-3.765
		C-1.257,34.305-1.257,77.73,25.431,104.421z"/>
	<path style="fill:#FDCC12;" d="M97.973,36.177c1.595,2.627,2.678,5.604,3.251,8.926c-1.725,0.516-3.429,0.772-5.112,0.772
		c-2.862,0-5.869-0.758-9.023-2.276v-0.628c0-2.949-4.413-4.425-13.233-4.425c-9.118,0-13.676,1.474-13.676,4.422v0.628
		c-3.017,1.729-5.996,2.593-8.934,2.593c-1.744,0-3.477-0.321-5.201-0.968c0.548-3.171,1.636-6.186,3.266-9.044
		c3.727-1.385,7.604-2.417,11.636-3.099c4.031-0.683,8.214-1.024,12.549-1.024c4.491,0,8.776,0.342,12.856,1.024
		C90.431,33.76,94.305,34.792,97.973,36.177z M60.179,45.271v1.074c0,2.323-0.682,4.012-2.043,5.067
		c-1.362,1.055-3.541,1.582-6.538,1.582c-2.156,0-3.62-0.352-4.394-1.056c-0.774-0.703-1.16-2.04-1.16-4.008v-1.245
		c1.978,0.646,3.771,0.969,5.378,0.969C54.439,47.655,57.357,46.861,60.179,45.271z M69.184,46.922h8.9v-3.979h6.492v5.502
		l7.722,12.419c1.129,1.809,1.87,3.288,2.222,4.438c0.351,1.151,0.527,2.67,0.527,4.558v6.902H52.222V69.86
		c0-2.93,0.976-5.968,2.925-9.114l7.545-12.301v-5.502h6.492V46.922z M65.415,51.634v2.617h3.665v-2.617H65.415z M65.415,56.031
		v2.618h3.665v-2.618H65.415z M65.415,60.429v2.513h3.665v-2.513H65.415z M71.592,51.634v2.617h3.665v-2.617H71.592z M71.592,56.031
		v2.618h3.665v-2.618H71.592z M71.592,60.429v2.513h3.665v-2.513H71.592z M77.77,51.634v2.617h3.664v-2.617H77.77z M77.77,56.031
		v2.618h3.664v-2.618H77.77z M77.77,60.429v2.513h3.664v-2.513H77.77z M101.224,46.568v1.397c0,1.805-0.388,3.041-1.162,3.71
		c-0.774,0.671-2.208,1.005-4.304,1.005c-2.938,0-5.119-0.516-6.54-1.546c-1.42-1.031-2.13-2.616-2.13-4.756v-1.313
		c2.781,1.518,5.78,2.275,8.993,2.275C97.922,47.341,99.637,47.084,101.224,46.568z"/>
</g>
</svg>
