<?xml version="1.0" encoding="UTF-8" standalone="no"?>
<!DOCTYPE svg PUBLIC "-//W3C//DTD SVG 1.1//EN" "http://www.w3.org/Graphics/SVG/1.1/DTD/svg11.dtd">
<svg xmlns="http://www.w3.org/2000/svg" viewBox="0 0 68 109">
  <path fill-rule="evenodd" d="M14.5 39h1.03v11h-8V39h1.02l.98-39h4zm45.13 0h1.02v11h-8V39h1.03l.97-39h4z"/>
  <path fill="#ff4500" fill-rule="evenodd" stroke="#a3a3a3" stroke-miterlimit="10" d="M.53 50c22-4 44-4 66 0 0 17-2 34-6 51-17 9-34 9-54-1-3-14-6-33-6-50z"/>
  <path fill="#dfdfdf" fill-rule="evenodd" stroke="#a3a3a3" stroke-miterlimit="10" d="M66.28 58h-8m7.75 5h-8M9.28 58h-8m12.25 35h-8m56.25 0h-8m-41.25-5h-8m58.42 0h-8m-43.42-5.5h-8m60.33 0h-8m-44.7-5h-8m61.45 0h-8m-46.2-5h-8m62.45 0h-8m-46.96-5h-8m63.88 0h-8M9.53 63h-8"/>
</svg>
